<mxfile host="Electron" agent="Mozilla/5.0 (Windows NT 10.0; Win64; x64) AppleWebKit/537.36 (KHTML, like Gecko) draw.io/24.7.5 Chrome/126.0.6478.183 Electron/31.3.0 Safari/537.36" version="24.7.5">
  <diagram id="C5RBs43oDa-KdzZeNtuy" name="Page-1">
    <mxGraphModel dx="1050" dy="621" grid="1" gridSize="10" guides="1" tooltips="1" connect="1" arrows="1" fold="1" page="1" pageScale="1" pageWidth="827" pageHeight="1169" math="0" shadow="0">
      <root>
        <mxCell id="WIyWlLk6GJQsqaUBKTNV-0" />
        <mxCell id="WIyWlLk6GJQsqaUBKTNV-1" parent="WIyWlLk6GJQsqaUBKTNV-0" />
        <mxCell id="841dcLEuuWm_BFh3bxev-0" value="ATM" style="text;html=1;align=center;verticalAlign=middle;whiteSpace=wrap;rounded=0;" vertex="1" parent="WIyWlLk6GJQsqaUBKTNV-1">
          <mxGeometry x="360" width="60" height="30" as="geometry" />
        </mxCell>
        <mxCell id="841dcLEuuWm_BFh3bxev-1" value="«AbstractClass»&lt;br&gt;&lt;b&gt;ATMState&lt;/b&gt;&lt;hr&gt;- insertCard(ATM);&lt;div&gt;- authenticatePin(ATM);&lt;/div&gt;&lt;div&gt;- selectOperation(ATM);&lt;/div&gt;&lt;div&gt;- cashWithdrawal(ATM);&lt;/div&gt;&lt;div&gt;- displayBalance(ATM);&lt;/div&gt;&lt;div&gt;returnCrad(ATM);&lt;/div&gt;&lt;div&gt;-exit(ATM);&lt;/div&gt;" style="html=1;whiteSpace=wrap;" vertex="1" parent="WIyWlLk6GJQsqaUBKTNV-1">
          <mxGeometry x="480" y="40" width="150" height="180" as="geometry" />
        </mxCell>
        <mxCell id="841dcLEuuWm_BFh3bxev-2" value="IdleState&lt;hr&gt;- insertCard(ATM)" style="html=1;whiteSpace=wrap;" vertex="1" parent="WIyWlLk6GJQsqaUBKTNV-1">
          <mxGeometry x="370" y="260" width="110" height="50" as="geometry" />
        </mxCell>
        <mxCell id="841dcLEuuWm_BFh3bxev-3" value="HasCardState&lt;hr&gt;- authenticatePin(ATM,Card);&lt;div&gt;- exit(ATM);&lt;/div&gt;&lt;div&gt;- returnCard(ATM);&lt;/div&gt;" style="html=1;whiteSpace=wrap;" vertex="1" parent="WIyWlLk6GJQsqaUBKTNV-1">
          <mxGeometry x="500" y="260" width="160" height="100" as="geometry" />
        </mxCell>
        <mxCell id="841dcLEuuWm_BFh3bxev-4" value="SelectOperationState&lt;hr&gt;- selectOperation(ATM);&lt;div&gt;- exit(ATM)&lt;/div&gt;&lt;div&gt;- returnCard(ATM);&lt;/div&gt;" style="html=1;whiteSpace=wrap;" vertex="1" parent="WIyWlLk6GJQsqaUBKTNV-1">
          <mxGeometry x="680" y="260" width="130" height="90" as="geometry" />
        </mxCell>
        <mxCell id="841dcLEuuWm_BFh3bxev-5" value="CheckBalanceState&lt;hr&gt;- checkbalance(ATM);&lt;div&gt;- exit(ATM)&lt;/div&gt;&lt;div&gt;- returnCar(ATM);&lt;br&gt;&lt;div&gt;&lt;br&gt;&lt;/div&gt;&lt;/div&gt;" style="html=1;whiteSpace=wrap;" vertex="1" parent="WIyWlLk6GJQsqaUBKTNV-1">
          <mxGeometry x="827" y="260" width="133" height="90" as="geometry" />
        </mxCell>
        <mxCell id="841dcLEuuWm_BFh3bxev-16" style="edgeStyle=orthogonalEdgeStyle;rounded=0;orthogonalLoop=1;jettySize=auto;html=1;exitX=0.5;exitY=1;exitDx=0;exitDy=0;entryX=0.5;entryY=0;entryDx=0;entryDy=0;" edge="1" parent="WIyWlLk6GJQsqaUBKTNV-1" source="841dcLEuuWm_BFh3bxev-6" target="841dcLEuuWm_BFh3bxev-7">
          <mxGeometry relative="1" as="geometry" />
        </mxCell>
        <mxCell id="841dcLEuuWm_BFh3bxev-6" value="CashWithdrawalState&lt;hr&gt;CashWithdrawalProcessor obj;&lt;hr&gt;&lt;div&gt;- cashWithdrawal(ATM);&lt;div&gt;- exit(ATM);&lt;/div&gt;&lt;div&gt;- returnCard(ATM);&lt;/div&gt;&lt;/div&gt;" style="html=1;whiteSpace=wrap;" vertex="1" parent="WIyWlLk6GJQsqaUBKTNV-1">
          <mxGeometry x="520" y="400" width="170" height="140" as="geometry" />
        </mxCell>
        <mxCell id="841dcLEuuWm_BFh3bxev-7" value="&lt;div&gt;&amp;lt;&amp;lt;AbstractClass&amp;gt;&amp;gt;&lt;/div&gt;CashWithdrawalProcessor&lt;hr&gt;CashWithdrawalProcessor obj;" style="rounded=0;whiteSpace=wrap;html=1;" vertex="1" parent="WIyWlLk6GJQsqaUBKTNV-1">
          <mxGeometry x="520" y="600" width="170" height="70" as="geometry" />
        </mxCell>
        <mxCell id="841dcLEuuWm_BFh3bxev-8" value="2kCashWithdrawalProcessor" style="whiteSpace=wrap;html=1;aspect=fixed;" vertex="1" parent="WIyWlLk6GJQsqaUBKTNV-1">
          <mxGeometry x="440" y="720" width="170" height="170" as="geometry" />
        </mxCell>
        <mxCell id="841dcLEuuWm_BFh3bxev-9" value="500CashWithdrawalProcessor" style="whiteSpace=wrap;html=1;aspect=fixed;" vertex="1" parent="WIyWlLk6GJQsqaUBKTNV-1">
          <mxGeometry x="630" y="720" width="170" height="170" as="geometry" />
        </mxCell>
        <mxCell id="841dcLEuuWm_BFh3bxev-10" value="100CashWithdrawalProcessor" style="whiteSpace=wrap;html=1;aspect=fixed;" vertex="1" parent="WIyWlLk6GJQsqaUBKTNV-1">
          <mxGeometry x="820" y="720" width="170" height="170" as="geometry" />
        </mxCell>
        <mxCell id="841dcLEuuWm_BFh3bxev-17" style="edgeStyle=orthogonalEdgeStyle;rounded=0;orthogonalLoop=1;jettySize=auto;html=1;exitX=1;exitY=0.5;exitDx=0;exitDy=0;entryX=0.75;entryY=1;entryDx=0;entryDy=0;" edge="1" parent="WIyWlLk6GJQsqaUBKTNV-1" source="841dcLEuuWm_BFh3bxev-7" target="841dcLEuuWm_BFh3bxev-7">
          <mxGeometry relative="1" as="geometry" />
        </mxCell>
        <mxCell id="841dcLEuuWm_BFh3bxev-18" value="Extends" style="endArrow=block;endSize=16;endFill=0;html=1;rounded=0;exitX=0.25;exitY=1;exitDx=0;exitDy=0;entryX=0.25;entryY=0;entryDx=0;entryDy=0;" edge="1" parent="WIyWlLk6GJQsqaUBKTNV-1" source="841dcLEuuWm_BFh3bxev-7" target="841dcLEuuWm_BFh3bxev-8">
          <mxGeometry width="160" relative="1" as="geometry">
            <mxPoint x="430" y="700" as="sourcePoint" />
            <mxPoint x="590" y="700" as="targetPoint" />
          </mxGeometry>
        </mxCell>
        <mxCell id="841dcLEuuWm_BFh3bxev-19" value="Extends" style="endArrow=block;endSize=16;endFill=0;html=1;rounded=0;exitX=0.5;exitY=1;exitDx=0;exitDy=0;entryX=0;entryY=0;entryDx=0;entryDy=0;" edge="1" parent="WIyWlLk6GJQsqaUBKTNV-1" source="841dcLEuuWm_BFh3bxev-7" target="841dcLEuuWm_BFh3bxev-9">
          <mxGeometry width="160" relative="1" as="geometry">
            <mxPoint x="573" y="680" as="sourcePoint" />
            <mxPoint x="493" y="730" as="targetPoint" />
          </mxGeometry>
        </mxCell>
        <mxCell id="841dcLEuuWm_BFh3bxev-20" value="Extends" style="endArrow=block;endSize=16;endFill=0;html=1;rounded=0;exitX=1;exitY=1;exitDx=0;exitDy=0;entryX=0.25;entryY=0;entryDx=0;entryDy=0;" edge="1" parent="WIyWlLk6GJQsqaUBKTNV-1" source="841dcLEuuWm_BFh3bxev-7" target="841dcLEuuWm_BFh3bxev-10">
          <mxGeometry width="160" relative="1" as="geometry">
            <mxPoint x="615" y="680" as="sourcePoint" />
            <mxPoint x="640" y="730" as="targetPoint" />
          </mxGeometry>
        </mxCell>
        <mxCell id="841dcLEuuWm_BFh3bxev-21" value="Extends" style="endArrow=block;endSize=16;endFill=0;html=1;rounded=0;exitX=0;exitY=0.75;exitDx=0;exitDy=0;entryX=0.5;entryY=0;entryDx=0;entryDy=0;" edge="1" parent="WIyWlLk6GJQsqaUBKTNV-1" source="841dcLEuuWm_BFh3bxev-1" target="841dcLEuuWm_BFh3bxev-2">
          <mxGeometry width="160" relative="1" as="geometry">
            <mxPoint x="625" y="690" as="sourcePoint" />
            <mxPoint x="650" y="740" as="targetPoint" />
          </mxGeometry>
        </mxCell>
        <mxCell id="841dcLEuuWm_BFh3bxev-23" value="Extends" style="endArrow=block;endSize=16;endFill=0;html=1;rounded=0;exitX=0.75;exitY=1;exitDx=0;exitDy=0;entryX=0.75;entryY=0;entryDx=0;entryDy=0;" edge="1" parent="WIyWlLk6GJQsqaUBKTNV-1" source="841dcLEuuWm_BFh3bxev-1" target="841dcLEuuWm_BFh3bxev-3">
          <mxGeometry width="160" relative="1" as="geometry">
            <mxPoint x="490" y="185" as="sourcePoint" />
            <mxPoint x="435" y="270" as="targetPoint" />
          </mxGeometry>
        </mxCell>
        <mxCell id="841dcLEuuWm_BFh3bxev-24" value="Extends" style="endArrow=block;endSize=16;endFill=0;html=1;rounded=0;exitX=1;exitY=1;exitDx=0;exitDy=0;entryX=0.25;entryY=0;entryDx=0;entryDy=0;" edge="1" parent="WIyWlLk6GJQsqaUBKTNV-1" source="841dcLEuuWm_BFh3bxev-1" target="841dcLEuuWm_BFh3bxev-4">
          <mxGeometry width="160" relative="1" as="geometry">
            <mxPoint x="500" y="195" as="sourcePoint" />
            <mxPoint x="445" y="280" as="targetPoint" />
          </mxGeometry>
        </mxCell>
        <mxCell id="841dcLEuuWm_BFh3bxev-25" value="Extends" style="endArrow=block;endSize=16;endFill=0;html=1;rounded=0;exitX=1;exitY=0.75;exitDx=0;exitDy=0;entryX=0.25;entryY=0;entryDx=0;entryDy=0;" edge="1" parent="WIyWlLk6GJQsqaUBKTNV-1" source="841dcLEuuWm_BFh3bxev-1" target="841dcLEuuWm_BFh3bxev-5">
          <mxGeometry width="160" relative="1" as="geometry">
            <mxPoint x="510" y="205" as="sourcePoint" />
            <mxPoint x="455" y="290" as="targetPoint" />
          </mxGeometry>
        </mxCell>
        <mxCell id="841dcLEuuWm_BFh3bxev-26" value="Extends" style="endArrow=block;endSize=16;endFill=0;html=1;rounded=0;exitX=0;exitY=0.5;exitDx=0;exitDy=0;entryX=0.25;entryY=0;entryDx=0;entryDy=0;" edge="1" parent="WIyWlLk6GJQsqaUBKTNV-1" source="841dcLEuuWm_BFh3bxev-1" target="841dcLEuuWm_BFh3bxev-6">
          <mxGeometry width="160" relative="1" as="geometry">
            <mxPoint x="520" y="215" as="sourcePoint" />
            <mxPoint x="465" y="300" as="targetPoint" />
          </mxGeometry>
        </mxCell>
        <mxCell id="841dcLEuuWm_BFh3bxev-28" style="edgeStyle=orthogonalEdgeStyle;rounded=0;orthogonalLoop=1;jettySize=auto;html=1;exitX=1;exitY=0.5;exitDx=0;exitDy=0;entryX=0;entryY=0.25;entryDx=0;entryDy=0;" edge="1" parent="WIyWlLk6GJQsqaUBKTNV-1" source="841dcLEuuWm_BFh3bxev-27" target="841dcLEuuWm_BFh3bxev-1">
          <mxGeometry relative="1" as="geometry" />
        </mxCell>
        <mxCell id="841dcLEuuWm_BFh3bxev-27" value="ATM&lt;hr&gt;ATMState obj;" style="html=1;whiteSpace=wrap;" vertex="1" parent="WIyWlLk6GJQsqaUBKTNV-1">
          <mxGeometry x="220" y="40" width="110" height="50" as="geometry" />
        </mxCell>
        <mxCell id="841dcLEuuWm_BFh3bxev-35" style="edgeStyle=orthogonalEdgeStyle;rounded=0;orthogonalLoop=1;jettySize=auto;html=1;exitX=0.5;exitY=1;exitDx=0;exitDy=0;entryX=0.5;entryY=0;entryDx=0;entryDy=0;" edge="1" parent="WIyWlLk6GJQsqaUBKTNV-1" source="841dcLEuuWm_BFh3bxev-29" target="841dcLEuuWm_BFh3bxev-30">
          <mxGeometry relative="1" as="geometry" />
        </mxCell>
        <mxCell id="841dcLEuuWm_BFh3bxev-36" style="edgeStyle=orthogonalEdgeStyle;rounded=0;orthogonalLoop=1;jettySize=auto;html=1;exitX=0.25;exitY=1;exitDx=0;exitDy=0;entryX=0.25;entryY=0;entryDx=0;entryDy=0;" edge="1" parent="WIyWlLk6GJQsqaUBKTNV-1" source="841dcLEuuWm_BFh3bxev-29" target="841dcLEuuWm_BFh3bxev-31">
          <mxGeometry relative="1" as="geometry" />
        </mxCell>
        <mxCell id="841dcLEuuWm_BFh3bxev-29" value="User&lt;hr&gt;Card obj;&lt;div&gt;BankAccount obj;&lt;/div&gt;" style="html=1;whiteSpace=wrap;" vertex="1" parent="WIyWlLk6GJQsqaUBKTNV-1">
          <mxGeometry x="10" y="40" width="130" height="80" as="geometry" />
        </mxCell>
        <mxCell id="841dcLEuuWm_BFh3bxev-37" style="edgeStyle=orthogonalEdgeStyle;rounded=0;orthogonalLoop=1;jettySize=auto;html=1;exitX=0.5;exitY=1;exitDx=0;exitDy=0;entryX=0.75;entryY=0;entryDx=0;entryDy=0;" edge="1" parent="WIyWlLk6GJQsqaUBKTNV-1" source="841dcLEuuWm_BFh3bxev-30" target="841dcLEuuWm_BFh3bxev-31">
          <mxGeometry relative="1" as="geometry" />
        </mxCell>
        <mxCell id="841dcLEuuWm_BFh3bxev-30" value="Card&lt;hr&gt;int cvv;&lt;div&gt;int pin;&lt;/div&gt;&lt;div&gt;BankAccount obj;&lt;/div&gt;" style="html=1;whiteSpace=wrap;" vertex="1" parent="WIyWlLk6GJQsqaUBKTNV-1">
          <mxGeometry x="80" y="160" width="120" height="90" as="geometry" />
        </mxCell>
        <mxCell id="841dcLEuuWm_BFh3bxev-31" value="BankAccount&lt;hr&gt;int balance;&lt;hr&gt;updateBalance();" style="html=1;whiteSpace=wrap;" vertex="1" parent="WIyWlLk6GJQsqaUBKTNV-1">
          <mxGeometry x="10" y="280" width="130" height="90" as="geometry" />
        </mxCell>
        <mxCell id="841dcLEuuWm_BFh3bxev-33" style="edgeStyle=orthogonalEdgeStyle;rounded=0;orthogonalLoop=1;jettySize=auto;html=1;exitX=0.5;exitY=0;exitDx=0;exitDy=0;entryX=0.75;entryY=1;entryDx=0;entryDy=0;" edge="1" parent="WIyWlLk6GJQsqaUBKTNV-1" source="841dcLEuuWm_BFh3bxev-32" target="841dcLEuuWm_BFh3bxev-27">
          <mxGeometry relative="1" as="geometry" />
        </mxCell>
        <mxCell id="841dcLEuuWm_BFh3bxev-34" style="edgeStyle=orthogonalEdgeStyle;rounded=0;orthogonalLoop=1;jettySize=auto;html=1;exitX=0.25;exitY=0;exitDx=0;exitDy=0;entryX=1;entryY=0.75;entryDx=0;entryDy=0;" edge="1" parent="WIyWlLk6GJQsqaUBKTNV-1" source="841dcLEuuWm_BFh3bxev-32" target="841dcLEuuWm_BFh3bxev-29">
          <mxGeometry relative="1" as="geometry" />
        </mxCell>
        <mxCell id="841dcLEuuWm_BFh3bxev-32" value="ATMRoom&lt;hr&gt;ATM obj;&lt;div&gt;User user;&lt;/div&gt;" style="html=1;whiteSpace=wrap;" vertex="1" parent="WIyWlLk6GJQsqaUBKTNV-1">
          <mxGeometry x="240" y="160" width="120" height="80" as="geometry" />
        </mxCell>
      </root>
    </mxGraphModel>
  </diagram>
</mxfile>
